<!DOCTYPE svg PUBLIC "-//W3C//DTD SVG 1.1//EN" "http://www.w3.org/Graphics/SVG/1.1/DTD/svg11.dtd">
<svg width="100" height="100" viewBox="0 0 1000 1000"  xmlns="http://www.w3.org/2000/svg">
<path d="M200 100C200 44.7716 244.772 0 300 0V0C355.228 0 400 44.7715 400 100V900C400 955.228 355.228 1000 300 1000V1000C244.772 1000 200 955.228 200 900V100Z" />
<path d="M600 100C600 44.7716 644.772 0 700 0V0C755.228 0 800 44.7715 800 100V900C800 955.228 755.228 1000 700 1000V1000C644.772 1000 600 955.228 600 900V100Z" />
</svg>

